<svg id="Layer_1" data-name="Layer 1" xmlns="http://www.w3.org/2000/svg" viewBox="0 0 377 214"><defs><style>.cls-1{fill:#333;}</style></defs><title>RV</title><path class="cls-1" d="M136.94,111.61A59.78,59.78,0,0,0,156.3,67c-.31-33.06-27.92-59.38-61-59.38h-75c-8.94,0-16.6,7-16.77,15.93A16.23,16.23,0,0,0,19.75,40h76c15.1,0,27.86,11.9,28.12,27a27.32,27.32,0,0,1-6.33,18A15.93,15.93,0,0,1,94,86l-.18-.18C87.5,79.44,77.14,79,70.71,85.16a16.23,16.23,0,0,0-.22,23.17l93.27,93.27a16.23,16.23,0,0,0,23,0c6.32-6.31,6-17-.34-23.3l-49.68-49.68A11.81,11.81,0,0,1,136.94,111.61Z"/><path class="cls-1" d="M367.19,20.18a16.23,16.23,0,0,0-22.76,3L246.14,150.83a16.28,16.28,0,0,1-24.41,1.58l-42.47-42.47a16.23,16.23,0,0,0-23.17.22c-6.2,6.43-5.72,16.8.6,23.12l67.17,67.17a16.22,16.22,0,0,0,25.38-.41L370.15,42.95A16.23,16.23,0,0,0,367.19,20.18Z"/><path class="cls-1" d="M43.77,206.36h-24a16.23,16.23,0,0,1,0-32.46h24a16.23,16.23,0,0,1,0,32.46Z"/></svg>